<svg width="43" height="35" viewBox="0 0 43 35" fill="none" xmlns="http://www.w3.org/2000/svg">
<path d="M1 3.5L1.50518 2.63699C1.19593 2.45596 0.81346 2.45424 0.502596 2.63248C0.191733 2.81072 0 3.14166 0 3.5H1ZM1 31.5H0C0 31.8583 0.191733 32.1893 0.502596 32.3675C0.81346 32.5458 1.19593 32.544 1.50518 32.363L1 31.5ZM24.9167 17.5L25.4218 18.363C25.7283 18.1836 25.9167 17.8551 25.9167 17.5C25.9167 17.1449 25.7283 16.8164 25.4218 16.637L24.9167 17.5ZM0 3.5V31.5H2V3.5H0ZM1.50518 32.363L25.4218 18.363L24.4115 16.637L0.494821 30.637L1.50518 32.363ZM25.4218 16.637L1.50518 2.63699L0.494821 4.36301L24.4115 18.363L25.4218 16.637ZM41 0V35H43V0H41Z" fill="#FF9338"/>
</svg>
