<svg width="43" height="35" viewBox="0 0 43 35" fill="none" xmlns="http://www.w3.org/2000/svg">
<path d="M42 31.5L41.4948 32.363C41.8041 32.544 42.1865 32.5458 42.4974 32.3675C42.8083 32.1893 43 31.8583 43 31.5H42ZM42 3.5H43C43 3.14166 42.8083 2.81072 42.4974 2.63248C42.1865 2.45424 41.8041 2.45596 41.4948 2.63699L42 3.5ZM18.0833 17.5L17.5782 16.637C17.2717 16.8164 17.0833 17.1449 17.0833 17.5C17.0833 17.8551 17.2717 18.1836 17.5782 18.363L18.0833 17.5ZM43 31.5L43 3.5H41L41 31.5H43ZM41.4948 2.63699L17.5782 16.637L18.5885 18.363L42.5052 4.36301L41.4948 2.63699ZM17.5782 18.363L41.4948 32.363L42.5052 30.637L18.5885 16.637L17.5782 18.363ZM2 35L2 0H-9.53674e-07L-9.53674e-07 35H2Z" fill="#FF9338"/>
</svg>
