<svg width="29" height="26" viewBox="0 0 29 26" fill="none" xmlns="http://www.w3.org/2000/svg">
<path d="M28.2149 9.06567C28.1003 8.79117 27.7302 8.63981 27.3814 8.73369C27.0364 8.82555 26.8498 9.1226 26.9649 9.39814C27.4406 10.5356 27.682 11.709 27.682 12.885C27.682 14.0609 27.4406 15.2343 26.965 16.3718C26.8498 16.6474 27.0364 16.9444 27.3814 17.0363C27.451 17.0548 27.5211 17.0635 27.59 17.0635C27.8661 17.0635 28.1229 16.9244 28.2149 16.7043C28.7363 15.4591 29.0001 14.1743 29.0001 12.885C29.0001 11.5956 28.7362 10.3109 28.2149 9.06567Z" fill="#2B3244"/>
<path d="M24.837 9.39751C24.492 9.48884 24.3054 9.78644 24.4205 10.062C24.8054 10.9835 25.0011 11.9332 25.0011 12.885C25.0011 13.8368 24.8054 14.7865 24.4205 15.708C24.3053 15.9835 24.492 16.2811 24.837 16.3725C24.9065 16.3909 24.9766 16.3997 25.0455 16.3997C25.3217 16.3997 25.5785 16.2606 25.6705 16.0405C26.1012 15.0112 26.3193 13.9496 26.3193 12.885C26.3193 11.8204 26.1012 10.7588 25.6705 9.7295C25.556 9.45445 25.1865 9.30565 24.837 9.39751Z" fill="#2B3244"/>
<path d="M9.64245 18.1389H2.63639H0V9.73265V7.63106H9.64245L22.4092 0.529297V3.38584V22.3841V25.2407L9.64245 18.1389Z" fill="#2B3244"/>
</svg>
