<svg width="38" height="37" viewBox="0 0 38 37" fill="none" xmlns="http://www.w3.org/2000/svg">
<path d="M10 27.25L10.5039 26.3862L10.2703 26.25H10V27.25ZM10 9.75V10.75H10.2703L10.5039 10.6138L10 9.75ZM25 1H26C26 0.641935 25.8086 0.311196 25.4981 0.132858C25.1876 -0.0454804 24.8054 -0.0441976 24.4961 0.136221L25 1ZM25 36L24.4961 36.8638C24.8054 37.0442 25.1876 37.0455 25.4981 36.8671C25.8086 36.6888 26 36.3581 26 36H25ZM10 26.25H4V28.25H10V26.25ZM4 26.25C2.86888 26.25 2 25.367 2 24.3333H0C0 26.5255 1.81912 28.25 4 28.25V26.25ZM2 24.3333V12.6667H0V24.3333H2ZM2 12.6667C2 11.633 2.86888 10.75 4 10.75V8.75C1.81912 8.75 0 10.4745 0 12.6667H2ZM4 10.75H10V8.75H4V10.75ZM10.5039 10.6138L25.5039 1.86378L24.4961 0.136221L9.49613 8.88622L10.5039 10.6138ZM24 1V36H26V1H24ZM25.5039 35.1362L10.5039 26.3862L9.49613 28.1138L24.4961 36.8638L25.5039 35.1362ZM30 14.1336V22.8893H32V14.1336H30ZM36 8.29642V28.7264H38V8.29642H36Z" fill="#FF9338"/>
</svg>
