<svg width="37" height="37" viewBox="0 0 37 37" fill="none" xmlns="http://www.w3.org/2000/svg">
<path d="M16 13.5L16.4961 12.6318C16.1866 12.4549 15.8064 12.4562 15.4981 12.6351C15.1898 12.814 15 13.1435 15 13.5H16ZM16 23.5H15C15 23.8565 15.1898 24.186 15.4981 24.3649C15.8064 24.5438 16.1866 24.5451 16.4961 24.3682L16 23.5ZM24.75 18.5L25.2461 19.3682C25.5577 19.1902 25.75 18.8589 25.75 18.5C25.75 18.1411 25.5577 17.8098 25.2461 17.6318L24.75 18.5ZM18.5 35C9.3873 35 2 27.6127 2 18.5H0C0 28.7173 8.28273 37 18.5 37V35ZM35 18.5C35 27.6127 27.6127 35 18.5 35V37C28.7173 37 37 28.7173 37 18.5H35ZM18.5 2C27.6127 2 35 9.3873 35 18.5H37C37 8.28273 28.7173 0 18.5 0V2ZM18.5 0C8.28273 0 0 8.28273 0 18.5H2C2 9.3873 9.3873 2 18.5 2V0ZM15 13.5V23.5H17V13.5H15ZM16.4961 24.3682L25.2461 19.3682L24.2539 17.6318L15.5039 22.6318L16.4961 24.3682ZM25.2461 17.6318L16.4961 12.6318L15.5039 14.3682L24.2539 19.3682L25.2461 17.6318Z" fill="#FE9833"/>
</svg>
