<svg width="5" height="25" viewBox="0 0 5 25" fill="none" xmlns="http://www.w3.org/2000/svg">
<path d="M4.26777 0.732232C5.24408 1.70854 5.24408 3.29146 4.26777 4.26777C3.29146 5.24408 1.70854 5.24408 0.732232 4.26777C-0.244077 3.29146 -0.244077 1.70854 0.732232 0.732232C1.7085 -0.244077 3.29142 -0.244077 4.26777 0.732232Z" fill="#2B3244"/>
<path d="M4.26777 10.7322C5.24408 11.7085 5.24408 13.2915 4.26777 14.2678C3.29146 15.2441 1.70854 15.2441 0.732232 14.2678C-0.244077 13.2915 -0.244077 11.7085 0.732232 10.7322C1.7085 9.75592 3.29142 9.75592 4.26777 10.7322Z" fill="#2B3244"/>
<path d="M4.26777 20.7322C5.24408 21.7085 5.24408 23.2915 4.26777 24.2678C3.29146 25.2441 1.70854 25.2441 0.732232 24.2678C-0.244077 23.2915 -0.244077 21.7085 0.732232 20.7322C1.7085 19.7559 3.29142 19.7559 4.26777 20.7322Z" fill="#2B3244"/>
</svg>
